HIERARCHY
ROOT hip
{
	OFFSET 0.000000 0.000000 0.000000 
	CHANNELS 6 Xposition Yposition Zposition Xrotation Zrotation Yrotation
	JOINT abdomen
	{
		OFFSET 0.000000 3.402643 0.000000 
		CHANNELS 3 Xrotation Zrotation Yrotation
		JOINT chest
		{
			OFFSET 0.000000 8.438565 -0.680529 
			CHANNELS 3 Xrotation Zrotation Yrotation
			JOINT neck
			{
				OFFSET 0.000000 10.207942 -0.272212 
				CHANNELS 3 Xrotation Zrotation Yrotation
				JOINT head
				{
					OFFSET 0.000000 3.130431 0.000000 
					CHANNELS 3 Xrotation Zrotation Yrotation
					End Site
					{
						OFFSET 0.000000 3.130435 0.000000 
					}
				}
			}
			JOINT lCollar
			{
				OFFSET 3.470700 6.669187 -0.816635 
				CHANNELS 3 Yrotation Zrotation Xrotation
				JOINT lShldr
				{
					OFFSET 3.198488 0.000000 0.000000 
					CHANNELS 3 Zrotation Yrotation Xrotation
					JOINT lForeArm
					{
						OFFSET 10.139888 0.000000 0.000000 
						CHANNELS 3 Yrotation Zrotation Xrotation
						JOINT lHand
						{
							OFFSET 8.370511 0.000000 0.000000 
							CHANNELS 3 Zrotation Yrotation Xrotation
							End Site
							{
								OFFSET 4.083176 0.000000 0.000000 
							}
						}
					}
				}
			}
			JOINT rCollar
			{
				OFFSET -3.470700 6.669187 -0.816635 
				CHANNELS 3 Yrotation Zrotation Xrotation
				JOINT rShldr
				{
					OFFSET -3.198488 0.000000 0.000000 
					CHANNELS 3 Zrotation Yrotation Xrotation
					JOINT rForeArm
					{
						OFFSET -10.139888 0.000000 0.000000 
						CHANNELS 3 Yrotation Zrotation Xrotation
						JOINT rHand
						{
							OFFSET -8.370511 0.000000 0.000000 
							CHANNELS 3 Zrotation Yrotation Xrotation
							End Site
							{
								OFFSET -4.083176 0.000000 0.000000 
							}
						}
					}
				}
			}
		}
	}
	JOINT lThigh
	{
		OFFSET 5.308129 -1.633274 1.361059 
		CHANNELS 3 Xrotation Zrotation Yrotation
		JOINT lShin
		{
			OFFSET -2.041588 -20.007561 0.000000 
			CHANNELS 3 Xrotation Zrotation Yrotation
			JOINT lFoot
			{
				OFFSET 0.000000 -19.190928 -1.224953 
				CHANNELS 3 Xrotation Yrotation Zrotation
				End Site
				{
					OFFSET 0.000000 -2.449906 4.627600 
				}
			}
		}
	}
	JOINT rThigh
	{
		OFFSET -5.308129 -1.633274 1.361059 
		CHANNELS 3 Xrotation Zrotation Yrotation
		JOINT rShin
		{
			OFFSET 2.041588 -20.007561 0.000000 
			CHANNELS 3 Xrotation Zrotation Yrotation
			JOINT rFoot
			{
				OFFSET 0.000000 -19.190928 -1.224953 
				CHANNELS 3 Xrotation Yrotation Zrotation
				End Site
				{
					OFFSET 0.000000 -2.449906 4.627600 
				}
			}
		}
	}
}
MOTION
Frames: 13
Frame Time: 0.033333
0.601358 37.531834 2.779941 -0.446476 2.940686 -7.890957 0.000000 0.000000 0.000000 20.988100 -4.310978 -2.879848 4.129171 5.581367 -2.325320 -16.029821 8.850990 7.482859 1.992188 -2.001953 0.000341 -11.475942 -103.767365 -49.491852 -18.870892 0.384594 19.308859 46.686646 -15.483727 15.037817 -2.001953 1.992188 0.000000 -9.389592 96.086128 -56.814480 32.001637 -0.801143 19.507137 -36.064621 15.005188 -5.000640 -7.602515 1.384500 10.507754 44.190907 -0.625126 -3.346700 -35.015759 0.735402 -0.143409 -31.307774 -10.195065 -4.384246 44.114368 0.576261 3.295073 -12.573614 -0.215094 2.059228 
0.638664 37.570507 2.817246 -0.443293 2.921409 -7.881207 0.000000 0.000000 0.000000 20.434072 -4.409552 -2.595993 4.816289 5.485833 -1.716092 -16.371195 8.466752 6.773969 1.992188 -2.001953 0.000341 -2.669848 -102.331825 -59.468204 -18.344982 0.373166 19.297590 44.276058 -17.977688 13.442026 -2.001953 1.992188 0.000000 -19.638155 95.031303 -67.372559 33.041965 -0.825402 19.526838 -36.064621 15.005188 -5.000640 -7.426365 1.442823 10.498520 43.897224 -0.608571 -3.354903 -34.888725 0.760635 -0.219351 -31.137302 -10.105676 -4.425323 43.909077 0.576259 3.294680 -12.546442 -0.260504 2.035917 
0.675953 37.609180 2.854536 -0.438777 2.892457 -7.870961 0.000000 0.000000 0.000000 19.888840 -4.508061 -2.312137 5.491768 5.379858 -1.107810 -16.705219 8.070539 6.057139 1.992188 -2.001953 0.000341 8.160628 -101.304436 -71.474472 -17.828058 0.357891 19.283470 41.910309 -20.524815 11.932146 -2.001953 1.992188 0.000000 -34.618237 94.219452 -82.663658 34.087410 -0.853616 19.552593 -36.064621 15.005188 -5.000640 -7.239725 1.500803 10.479112 43.604008 -0.618284 -3.353794 -34.781540 0.749408 -0.276340 -30.962420 -10.027894 -4.474518 43.704498 0.576238 3.274935 -12.508548 -0.287624 2.021919 
0.688389 37.647850 2.866972 -0.434272 2.863504 -7.861211 0.000000 0.000000 0.000000 19.158850 -4.626318 -1.920427 6.409602 5.234310 -0.283804 -17.138657 7.567891 5.104445 1.992188 -2.001953 0.000341 22.175274 -100.891930 -86.686775 -17.249603 0.339850 19.282888 39.105858 -23.605480 10.200891 -2.001953 1.992188 0.000000 -59.572807 93.688301 -108.169525 35.534737 -0.895269 19.581167 -36.064621 15.005188 -5.000640 -6.985125 1.588336 10.417493 43.273369 -0.644436 -3.308487 -34.684071 0.747455 -0.385212 -30.737350 -9.920394 -4.501284 43.539429 0.602448 3.247645 -12.549727 -0.306723 1.957811 
0.700817 37.686527 2.879399 -0.428922 2.824809 -7.860731 0.000000 0.000000 0.000000 18.437826 -4.744390 -1.539256 7.332792 5.068136 0.539323 -17.575251 7.051938 4.153407 1.992188 -2.001953 0.000341 36.305107 -101.218834 -102.008087 -16.680071 0.320897 19.269905 36.326122 -26.768335 8.602090 -2.001953 1.992188 0.000000 93.833939 86.020851 44.698338 36.976437 -0.933771 19.614687 -36.064621 15.005188 -5.000640 -6.747982 1.670067 10.376955 42.951633 -0.680730 -3.286625 -34.576595 0.759330 -0.483181 -30.510141 -9.811650 -4.556548 43.363644 0.615227 3.243791 -12.581071 -0.321747 1.884878 
0.700817 37.734894 2.879399 -0.423098 2.786179 -7.850981 0.000000 0.000000 0.000000 17.580980 -4.872204 -1.068901 8.419791 4.861580 1.519812 -18.068125 6.465710 3.017450 1.992188 -2.001953 0.000341 48.827492 -102.357323 -115.587143 -16.132030 0.298610 19.271727 33.800228 -29.842096 7.342605 -2.001953 1.992188 0.000000 71.876999 84.898720 22.009338 38.726032 -0.971948 19.655930 -36.064621 15.005188 -5.000640 -6.464672 1.758043 10.334190 42.580669 -0.690343 -3.271694 -34.508106 0.771054 -0.592867 -30.280247 -9.706182 -4.631449 43.226662 0.615294 3.246760 -12.661413 -0.346402 1.807125 
0.700841 37.783268 2.879424 -0.417756 2.747482 -7.850513 0.000000 0.000000 0.000000 16.713022 -4.989955 -0.608271 9.507836 4.634316 2.488924 -18.547527 5.865987 1.885140 1.992188 -2.001953 0.000341 -121.248810 -75.981117 53.423649 -15.587008 0.287788 19.262432 31.269068 -32.973164 6.207634 -2.001953 1.992188 0.000000 59.314754 83.295685 8.692710 40.477375 -1.022531 19.695551 -36.064621 15.005188 -5.000640 -6.178727 1.844058 10.281800 42.229542 -0.702720 -3.249051 -34.410362 0.764056 -0.717202 -30.054916 -9.588794 -4.697551 43.080368 0.605502 3.235904 -12.741035 -0.360872 1.745436 
0.738149 37.831577 2.916731 -0.411952 2.708849 -7.840763 0.000000 0.000000 0.000000 15.767828 -5.107418 -0.068957 10.710488 4.366613 3.555438 -19.034647 5.224298 0.627739 1.992188 -2.001953 0.000341 -114.366104 -73.957497 45.812939 -15.155782 0.272906 19.260607 29.614737 -35.302147 5.858715 -2.001953 1.992188 0.000000 51.420227 81.312836 -0.152571 42.409332 -1.061166 19.741016 -36.064621 15.005188 -5.000640 -5.836628 1.951363 10.237321 41.819401 -0.722074 -3.235616 -34.341682 0.768593 -0.844163 -29.791325 -9.461880 -4.765774 42.943550 0.625045 3.236443 -12.870238 -0.404717 1.657822 
0.775439 37.879875 2.954022 -0.405284 2.660478 -7.840308 0.000000 0.000000 0.000000 14.820498 -5.214669 0.470360 11.900859 4.068807 4.621291 -19.512848 4.570040 -0.626904 1.992188 -2.001953 0.000341 -109.197960 -71.739357 39.894104 -14.724463 0.257758 19.257713 27.921251 -37.637161 5.582668 -2.001953 1.992188 0.000000 46.749634 79.215698 -5.776623 44.346901 -1.111626 19.784855 -36.064621 15.005188 -5.000640 -5.504516 2.068133 10.184366 41.419590 -0.751263 -3.206697 -34.253136 0.800224 -0.973712 -29.516443 -9.344210 -4.812042 42.807724 0.651190 3.210332 -13.007788 -0.419651 1.617672 
0.787875 37.908909 2.966458 -0.399502 2.621841 -7.830108 0.000000 0.000000 0.000000 13.798236 -5.321362 1.059198 13.166785 3.731348 5.725525 -19.977087 3.923520 -1.947490 1.992188 -2.001953 0.000341 -105.236115 -69.441956 35.425095 -14.293017 0.244746 19.244238 27.036175 -39.222347 6.028737 -2.001953 1.992188 0.000000 43.854698 76.921700 -9.813333 46.399292 -1.155947 19.837648 -36.064621 15.005188 -5.000640 -5.123981 2.175780 10.129595 40.970371 -0.770758 -3.191106 -34.155022 0.799082 -1.081437 -29.253428 -9.207342 -4.910154 42.680309 0.634803 3.217380 -13.155788 -0.444485 1.528581 
0.800312 37.937962 2.978894 -0.392843 2.573469 -7.830112 0.000000 0.000000 0.000000 12.793862 -5.407932 1.647126 14.415756 3.364760 6.818924 -20.420713 3.266179 -3.266986 1.992188 -2.001953 0.000341 -102.136627 -67.061836 31.794838 -13.870717 0.225759 19.238306 26.124554 -40.797123 6.514995 -2.001953 1.992188 0.000000 42.022423 74.594063 -12.775021 48.448822 -1.196426 19.895321 -36.064621 15.005188 -5.000640 -4.765480 2.285090 10.057127 40.531464 -0.799894 -3.159868 -34.085567 0.838110 -1.240592 -28.978273 -9.079776 -4.995810 42.552513 0.654371 3.237671 -13.303349 -0.489226 1.461863 
0.812742 37.995972 2.991324 -0.385754 2.525155 -7.819926 0.000000 0.000000 0.000000 11.747136 -5.484052 2.256340 15.685386 2.969636 7.901717 -20.827276 2.628185 -4.613920 1.992188 -2.001953 0.000341 -99.184753 -64.542580 28.438871 -13.337603 0.214087 19.239658 25.507927 -42.159447 7.337777 -2.001953 1.992188 0.000000 41.164097 72.180183 -14.908219 50.497318 -1.246950 19.944866 -36.064621 15.005188 -5.000640 -4.368277 2.376911 10.002133 40.063492 -0.812876 -3.121425 -33.996914 0.826138 -1.368322 -28.684254 -8.952491 -5.061699 42.406948 0.644562 3.207487 -13.450470 -0.495666 1.403940 
0.825181 38.053967 3.003763 -0.379104 2.476781 -7.819505 0.000000 0.000000 0.000000 10.698803 -5.539938 2.874350 16.946503 2.556256 8.974143 -21.222124 1.981461 -5.950788 1.992188 -2.001953 0.000341 -96.802094 -61.956223 25.636387 -12.813560 0.198903 19.238651 24.830141 -43.516094 8.222474 -2.001953 1.992188 0.000000 40.654091 69.755363 -16.711901 52.555244 -1.288826 19.994738 -36.064621 15.005188 -5.000640 -3.987288 2.473917 9.939169 39.595821 -0.828773 -3.074225 -33.917786 0.823858 -1.500298 -28.391062 -8.825572 -5.117284 42.270569 0.654257 3.194602 -13.587790 -0.509833 1.341900 
